<?xml version="1.0" standalone="no"?>
<!DOCTYPE svg PUBLIC "-//W3C//DTD SVG 20010904//EN"
 "http://www.w3.org/TR/2001/REC-SVG-20010904/DTD/svg10.dtd">
<svg version="1.0" xmlns="http://www.w3.org/2000/svg"
 width="1024.000000pt" height="1024.000000pt" viewBox="0 0 1024.000000 1024.000000"
 preserveAspectRatio="xMidYMid meet">
<metadata>
Created by potrace 1.11, written by Peter Selinger 2001-2013
</metadata>
<g transform="translate(0.000000,1024.000000) scale(0.100000,-0.100000)"
fill="#000000" stroke="none">
<path d="M0 5120 l0 -5120 5120 0 5120 0 0 5120 0 5120 -5120 0 -5120 0 0
-5120z m7904 2788 c-5 -7 -671 -932 -1481 -2056 -810 -1123 -1473 -2045 -1473
-2047 0 -3 665 -338 1478 -744 l1477 -740 -2788 0 c-2228 -1 -2787 2 -2781 12
5 6 671 931 1481 2055 810 1123 1473 2045 1473 2047 0 3 -665 338 -1477 744
l-1478 740 2788 0 c2228 1 2787 -2 2781 -11z"/>
</g>
</svg>
