<?xml version="1.0" standalone="no"?>
<!DOCTYPE svg PUBLIC "-//W3C//DTD SVG 20010904//EN"
 "http://www.w3.org/TR/2001/REC-SVG-20010904/DTD/svg10.dtd">
<svg version="1.0" xmlns="http://www.w3.org/2000/svg"
 width="1024.000000pt" height="1024.000000pt" viewBox="0 0 1024.000000 1024.000000"
 preserveAspectRatio="xMidYMid meet">
<metadata>
Created by potrace 1.11, written by Peter Selinger 2001-2013
</metadata>
<g transform="translate(0.000000,1024.000000) scale(0.100000,-0.100000)"
fill="#000000" stroke="none">
<path d="M3803 7179 c1032 -516 1477 -744 1474 -753 -3 -7 -70 -103 -149 -212
-79 -110 -155 -215 -168 -234 -14 -19 -29 -39 -35 -45 -5 -7 -23 -33 -39 -58
-17 -26 -34 -47 -38 -47 -4 0 -8 -6 -8 -14 0 -8 -4 -16 -8 -18 -4 -1 -58 -73
-119 -158 -61 -85 -122 -169 -135 -187 -13 -17 -30 -41 -38 -53 -15 -22 -198
-277 -226 -315 -21 -29 -333 -461 -379 -525 -11 -15 -36 -50 -55 -76 -69 -98
-279 -389 -287 -399 -5 -5 -34 -46 -66 -90 -31 -44 -96 -135 -144 -201 -49
-67 -110 -153 -137 -190 -27 -38 -66 -91 -86 -119 -20 -27 -90 -124 -155 -215
-65 -91 -132 -184 -149 -206 -17 -23 -38 -52 -46 -64 -8 -12 -37 -53 -65 -90
-27 -38 -68 -94 -90 -125 -22 -32 -68 -96 -103 -144 -34 -47 -75 -103 -90
-124 -39 -55 -84 -117 -116 -159 l-28 -38 2798 1 2799 0 -1477 740 c-813 406
-1478 743 -1478 747 0 4 65 98 145 207 79 110 166 230 192 267 26 37 77 108
113 157 36 49 97 134 136 188 39 54 142 197 229 318 87 121 172 239 189 261
17 23 37 50 44 60 7 11 42 60 78 109 36 50 73 101 82 115 9 14 35 50 58 80 23
30 63 87 89 125 27 39 52 72 57 73 4 2 8 10 8 17 0 7 3 15 8 17 4 2 25 28 46
58 22 30 54 75 72 100 18 25 74 101 123 170 50 69 97 134 105 145 8 11 37 52
65 90 27 39 79 111 115 160 36 50 128 178 205 285 77 107 143 200 148 205 5 6
55 75 112 155 58 80 131 181 163 225 31 44 98 136 147 205 50 69 94 130 98
135 5 6 37 49 71 98 l62 87 -2798 -1 -2797 0 1478 -740z"/>
</g>
</svg>
